<?xml version="1.0" standalone="no"?>
<!DOCTYPE svg PUBLIC "-//W3C//DTD SVG 20010904//EN"
 "http://www.w3.org/TR/2001/REC-SVG-20010904/DTD/svg10.dtd">
<svg version="1.0" xmlns="http://www.w3.org/2000/svg"
 width="255.000000pt" height="246.000000pt" viewBox="0 0 255.000000 246.000000"
 preserveAspectRatio="xMidYMid meet">
<metadata>
Created by potrace 1.16, written by Peter Selinger 2001-2019
</metadata>
<g transform="translate(0.000000,246.000000) scale(0.100000,-0.100000)"
fill="#000000" stroke="none">
<path d="M690 2398 c-34 -23 -43 -42 -54 -109 l-6 -36 -74 -6 c-111 -8 -201
-65 -256 -160 -49 -86 -51 -125 -48 -872 l3 -690 32 -65 c30 -60 104 -150 125
-150 5 0 6 -5 2 -12 -5 -8 -2 -9 9 -5 10 4 16 2 14 -5 -3 -13 94 -89 108 -84
6 2 21 -1 35 -6 14 -6 53 -11 88 -13 35 -2 77 -6 95 -10 22 -4 28 -3 18 3 -16
11 29 10 66 -2 12 -4 32 -2 43 4 12 6 29 8 38 5 9 -4 55 -6 101 -5 60 1 86 -2
92 -12 6 -8 9 -9 9 -2 0 8 11 9 34 4 19 -4 37 -5 40 -2 3 2 13 -1 23 -9 15
-12 16 -12 10 4 -4 10 -3 16 3 12 15 -9 410 -12 410 -2 0 4 4 5 10 2 18 -11
50 -14 55 -4 4 5 12 9 18 9 7 0 6 -4 -3 -10 -10 -7 5 -9 50 -5 76 7 130 6 142
-1 4 -3 8 2 8 10 0 9 8 16 18 17 34 1 76 10 93 19 12 7 19 6 22 -3 3 -7 6 -5
6 6 1 9 8 17 16 17 8 0 15 7 15 15 0 9 9 15 21 15 17 0 19 3 10 14 -9 11 -8
15 4 20 11 4 14 2 9 -7 -4 -6 22 17 58 52 74 71 101 122 117 222 7 40 11 312
11 719 0 711 -1 730 -55 812 -66 100 -144 146 -261 155 l-74 6 0 39 c0 79 -50
128 -130 128 -79 0 -119 -37 -130 -120 l-5 -45 -392 -3 -393 -2 0 48 c0 27 -7
57 -16 70 -38 54 -127 68 -184 30z m102 -65 c16 -14 18 -33 18 -160 l0 -143
-26 -12 c-23 -11 -29 -10 -45 11 -17 20 -19 41 -19 156 0 108 3 137 16 149 20
20 33 20 56 -1z m1046 4 c7 -8 12 -69 13 -151 1 -118 -1 -140 -17 -157 -22
-25 -39 -24 -58 3 -13 18 -16 51 -16 150 0 115 2 130 20 148 23 23 43 25 58 7z
m-1206 -254 c5 -90 25 -136 68 -158 58 -30 144 -11 172 38 7 12 15 60 18 107
l5 85 390 0 390 0 5 -82 c7 -113 46 -162 128 -163 84 0 131 65 132 183 l0 67
43 0 c88 0 178 -64 219 -158 18 -40 19 -77 19 -732 1 -771 2 -751 -69 -824
-77 -80 -27 -76 -851 -76 -547 0 -744 3 -775 12 -60 18 -138 99 -156 163 -21
73 -22 1366 -1 1439 28 95 128 174 222 176 l36 0 5 -77z"/>
<path d="M1360 1815 c-17 -20 1 -42 43 -53 l31 -8 -56 -58 -56 -58 -31 18 -32
19 -104 -106 c-58 -58 -105 -113 -105 -122 0 -8 10 -19 22 -23 18 -5 36 8 106
79 l84 86 30 -22 30 -22 69 75 68 75 17 -23 c10 -15 24 -22 37 -20 21 3 22 9
22 88 l0 85 -81 3 c-63 2 -84 -1 -94 -13z"/>
<path d="M737 1708 c-9 -7 -41 -85 -72 -173 l-55 -160 0 -329 0 -328 39 -73
c66 -121 102 -175 117 -175 31 0 167 246 162 294 l-3 31 -135 5 c-127 5 -135
6 -135 25 0 19 8 20 138 23 l137 3 0 260 0 261 -56 161 c-56 159 -71 187 -104
187 -9 0 -24 -6 -33 -12z m121 -305 c4 -10 7 -54 5 -98 -1 -44 -3 -129 -4
-190 -2 -89 -5 -113 -20 -128 -9 -11 -16 -28 -14 -38 2 -10 0 -19 -6 -19 -5 0
-9 87 -9 215 l0 215 -35 0 -35 0 0 -215 0 -215 -29 0 -30 0 -1 211 c0 117 -3
216 -6 221 -3 5 2 20 10 33 15 23 23 25 91 25 61 0 76 -3 83 -17z"/>
<path d="M1619 1531 l-64 -39 -3 -196 -2 -196 75 0 75 0 0 235 c0 129 -4 235
-8 235 -5 0 -37 -17 -73 -39z"/>
<path d="M1865 1426 l-70 -42 -3 -142 -3 -142 81 0 80 0 0 185 c0 102 -3 185
-7 184 -5 0 -39 -19 -78 -43z"/>
<path d="M1398 1392 c-98 -58 -98 -58 -98 -182 l0 -111 78 3 77 3 3 158 c1 86
-1 157 -5 157 -5 0 -29 -13 -55 -28z"/>
<path d="M1127 1225 c-64 -43 -67 -47 -67 -85 l0 -40 75 0 75 0 0 85 c0 47 -3
85 -8 85 -4 0 -38 -20 -75 -45z"/>
<path d="M1300 975 c-18 -22 -6 -41 32 -49 18 -4 165 -4 326 0 306 7 324 10
292 49 -19 22 -631 22 -650 0z"/>
<path d="M1060 822 c-16 -6 -11 -49 6 -56 9 -3 209 -6 444 -6 404 0 430 1 439
18 23 43 16 43 -443 45 -240 1 -441 1 -446 -1z"/>
<path d="M1068 659 c-22 -13 -23 -45 -2 -53 9 -3 208 -6 444 -6 350 0 430 2
439 14 23 28 2 43 -67 50 -112 10 -795 7 -814 -5z"/>
</g>
</svg>
